<svg width="112" height="68" viewBox="0 0 112 68" fill="none" xmlns="http://www.w3.org/2000/svg">
<g filter="url(#filter0_d_53_31)">
<rect x="4" y="2" width="104" height="60" rx="5" fill="#1EB847" shape-rendering="crispEdges"/>
<path d="M15.115 37.244L16.675 35.084C17.779 36.26 19.507 37.292 21.739 37.292C24.043 37.292 24.955 36.164 24.955 35.108C24.955 33.668 23.251 33.236 21.307 32.732C18.691 32.084 15.619 31.316 15.619 27.932C15.619 25.292 17.947 23.252 21.451 23.252C23.947 23.252 25.963 24.044 27.451 25.484L25.843 27.572C24.595 26.324 22.891 25.748 21.211 25.748C19.555 25.748 18.499 26.54 18.499 27.74C18.499 28.988 20.131 29.396 22.027 29.876C24.667 30.548 27.811 31.364 27.811 34.844C27.811 37.508 25.939 39.788 21.619 39.788C18.667 39.788 16.531 38.756 15.115 37.244ZM31.273 25.988C30.433 25.988 29.713 25.292 29.713 24.428C29.713 23.564 30.433 22.868 31.273 22.868C32.137 22.868 32.833 23.564 32.833 24.428C32.833 25.292 32.137 25.988 31.273 25.988ZM32.545 39.5H30.025V27.908H32.545V39.5ZM35.37 42.476L36.546 40.652C37.482 41.732 38.682 42.14 40.218 42.14C41.874 42.14 43.65 41.372 43.65 38.996V37.604C42.762 38.756 41.442 39.524 39.93 39.524C36.978 39.524 34.794 37.388 34.794 33.572C34.794 29.828 36.954 27.62 39.93 27.62C41.394 27.62 42.714 28.292 43.65 29.516V27.908H46.17V38.9C46.17 43.076 43.074 44.204 40.218 44.204C38.25 44.204 36.786 43.772 35.37 42.476ZM43.65 35.732V31.412C43.098 30.548 41.85 29.852 40.674 29.852C38.682 29.852 37.41 31.34 37.41 33.572C37.41 35.804 38.682 37.292 40.674 37.292C41.85 37.292 43.098 36.596 43.65 35.732ZM59.4799 39.5H56.9599V32.252C56.9599 30.452 56.0479 29.852 54.6319 29.852C53.3359 29.852 52.2319 30.62 51.6559 31.412V39.5H49.1359V27.908H51.6559V29.492C52.4239 28.58 53.9119 27.62 55.7359 27.62C58.2319 27.62 59.4799 28.964 59.4799 31.34V39.5ZM68.3892 33.188V23.492H71.2212V33.092C71.2212 35.636 72.6372 37.292 75.3252 37.292C77.9892 37.292 79.4052 35.636 79.4052 33.092V23.492H82.2372V33.164C82.2372 37.148 79.9572 39.788 75.3252 39.788C70.6692 39.788 68.3892 37.124 68.3892 33.188ZM87.7872 37.892V43.916H85.2672V27.908H87.7872V29.492C88.6512 28.34 89.9952 27.62 91.5072 27.62C94.5072 27.62 96.6432 29.876 96.6432 33.692C96.6432 37.508 94.5072 39.788 91.5072 39.788C90.0432 39.788 88.7232 39.14 87.7872 37.892ZM94.0272 33.692C94.0272 31.46 92.7552 29.852 90.7632 29.852C89.5872 29.852 88.3392 30.548 87.7872 31.412V35.996C88.3392 36.836 89.5872 37.556 90.7632 37.556C92.7552 37.556 94.0272 35.948 94.0272 33.692Z" fill="white"/>
</g>
<defs>
<filter id="filter0_d_53_31" x="0" y="0" width="112" height="68" filterUnits="userSpaceOnUse" color-interpolation-filters="sRGB">
<feFlood flood-opacity="0" result="BackgroundImageFix"/>
<feColorMatrix in="SourceAlpha" type="matrix" values="0 0 0 0 0 0 0 0 0 0 0 0 0 0 0 0 0 0 127 0" result="hardAlpha"/>
<feOffset dy="2"/>
<feGaussianBlur stdDeviation="2"/>
<feComposite in2="hardAlpha" operator="out"/>
<feColorMatrix type="matrix" values="0 0 0 0 0 0 0 0 0 0 0 0 0 0 0 0 0 0 0.25 0"/>
<feBlend mode="normal" in2="BackgroundImageFix" result="effect1_dropShadow_53_31"/>
<feBlend mode="normal" in="SourceGraphic" in2="effect1_dropShadow_53_31" result="shape"/>
</filter>
</defs>
</svg>
